<svg width="254" height="162" viewBox="0 0 254 162" fill="none" xmlns="http://www.w3.org/2000/svg">
<path d="M20.5 161.5H142H148.5L145 89.5C108.167 59.6667 31.7 1 20.5 1C5.7 1 1 13.3333 0.5 20V143C0.5 155.4 13.8333 160.5 20.5 161.5Z" fill="#3326AE"/>
<path d="M253.995 140V81L230.996 40L70 49C127.999 66.2 142.167 131.333 142 161.5H231C249.8 161.5 254.162 147 253.995 140Z" fill="#FFC005"/>
<path d="M254 22C254 4.8 238.833 0.833327 231.5 0.999994L20 1C12 1 7.5 5 6 7C19.5 27 64.5 47 89.5 59C114.5 71 168.5 55.5 206 55.5C236 55.5 250.667 72.6667 254 81.5V22Z" fill="#00C3F8"/>
<path d="M196.563 129.058C196.563 130.433 196.329 131.455 195.859 132.124C195.389 132.793 194.655 133.127 193.656 133.127C192.67 133.127 191.94 132.801 191.466 132.149C190.992 131.493 190.747 130.516 190.73 129.217V127.649C190.73 126.291 190.965 125.281 191.435 124.621C191.904 123.961 192.641 123.631 193.644 123.631C194.638 123.631 195.37 123.95 195.84 124.589C196.31 125.224 196.551 126.206 196.563 127.535V129.058ZM195.389 127.452C195.389 126.458 195.25 125.734 194.97 125.281C194.691 124.824 194.249 124.596 193.644 124.596C193.043 124.596 192.605 124.822 192.33 125.275C192.055 125.728 191.913 126.424 191.904 127.363V129.242C191.904 130.241 192.048 130.979 192.336 131.458C192.628 131.931 193.068 132.168 193.656 132.168C194.236 132.168 194.666 131.944 194.945 131.496C195.228 131.047 195.376 130.34 195.389 129.375V127.452ZM204.035 124.418L200.207 133H198.976L202.791 124.723H197.789V123.758H204.035V124.418ZM208.948 133.793H207.938L211.798 123.758H212.801L208.948 133.793ZM223.23 133H217.174V132.156L220.374 128.601C220.847 128.064 221.173 127.628 221.351 127.293C221.533 126.955 221.624 126.606 221.624 126.246C221.624 125.764 221.478 125.368 221.186 125.059C220.894 124.75 220.505 124.596 220.018 124.596C219.434 124.596 218.979 124.763 218.653 125.097C218.332 125.427 218.171 125.889 218.171 126.481H216.997C216.997 125.63 217.27 124.943 217.815 124.418C218.366 123.893 219.1 123.631 220.018 123.631C220.877 123.631 221.556 123.857 222.056 124.31C222.555 124.759 222.805 125.357 222.805 126.106C222.805 127.016 222.225 128.1 221.065 129.356L218.59 132.042H223.23V133ZM229.432 129.896H230.714V130.854H229.432V133H228.251V130.854H224.042V130.163L228.181 123.758H229.432V129.896ZM225.375 129.896H228.251V125.364L228.111 125.618L225.375 129.896Z" fill="white"/>
<path d="M30.1763 130.588H26.3042L25.4346 133H24.1777L27.707 123.758H28.7734L32.3091 133H31.0586L30.1763 130.588ZM26.6724 129.585H29.8145L28.2402 125.262L26.6724 129.585ZM34.71 133H33.5357V123.25H34.71V133ZM39.5104 133.127C38.5794 133.127 37.8219 132.822 37.2379 132.213C36.6539 131.599 36.3619 130.78 36.3619 129.756V129.541C36.3619 128.859 36.491 128.252 36.7491 127.719C37.0115 127.181 37.3754 126.762 37.8409 126.462C38.3107 126.157 38.8185 126.005 39.3644 126.005C40.2573 126.005 40.9513 126.299 41.4464 126.887C41.9415 127.475 42.1891 128.318 42.1891 129.414V129.902H37.5363C37.5532 130.579 37.75 131.127 38.1266 131.546C38.5074 131.961 38.9899 132.168 39.5738 132.168C39.9886 132.168 40.3398 132.084 40.6276 131.915C40.9153 131.745 41.1671 131.521 41.3829 131.242L42.1002 131.8C41.5247 132.685 40.6614 133.127 39.5104 133.127ZM39.3644 126.97C38.8904 126.97 38.4926 127.143 38.171 127.49C37.8494 127.833 37.6505 128.315 37.5743 128.938H41.0148V128.849C40.9809 128.252 40.8201 127.791 40.5323 127.465C40.2446 127.135 39.8553 126.97 39.3644 126.97ZM45.923 128.639L47.4465 126.132H48.8176L46.5705 129.528L48.8874 133H47.529L45.9421 130.429L44.3552 133H42.9904L45.3073 129.528L43.0602 126.132H44.4186L45.923 128.639ZM56.3299 128.88C55.2846 128.58 54.5229 128.212 54.0447 127.776C53.5708 127.336 53.3338 126.794 53.3338 126.151C53.3338 125.423 53.6237 124.822 54.2034 124.348C54.7874 123.87 55.5449 123.631 56.4759 123.631C57.1106 123.631 57.6756 123.754 58.1707 123.999C58.6701 124.244 59.0551 124.583 59.326 125.015C59.601 125.446 59.7386 125.918 59.7386 126.43H58.5135C58.5135 125.872 58.3357 125.434 57.9803 125.116C57.6248 124.795 57.1233 124.634 56.4759 124.634C55.875 124.634 55.4052 124.767 55.0667 125.034C54.7324 125.296 54.5652 125.662 54.5652 126.132C54.5652 126.508 54.7239 126.828 55.0413 127.09C55.3629 127.348 55.9067 127.585 56.6727 127.801C57.4428 128.017 58.0438 128.256 58.4754 128.519C58.9113 128.777 59.2329 129.079 59.4402 129.426C59.6518 129.773 59.7576 130.182 59.7576 130.651C59.7576 131.4 59.4656 132.001 58.8816 132.454C58.2977 132.903 57.5169 133.127 56.5394 133.127C55.9046 133.127 55.3121 133.006 54.762 132.765C54.2119 132.52 53.7866 132.185 53.4861 131.762C53.1899 131.339 53.0418 130.859 53.0418 130.321H54.2669C54.2669 130.88 54.4721 131.322 54.8826 131.648C55.2973 131.97 55.8496 132.13 56.5394 132.13C57.1826 132.13 57.6756 131.999 58.0184 131.737C58.3611 131.474 58.5325 131.117 58.5325 130.664C58.5325 130.211 58.3738 129.862 58.0564 129.617C57.7391 129.367 57.1635 129.122 56.3299 128.88ZM62.3109 126.132L62.3426 126.894C62.8462 126.301 63.5254 126.005 64.3802 126.005C65.3408 126.005 65.9947 126.373 66.3417 127.109C66.5702 126.779 66.8664 126.513 67.2303 126.31C67.5985 126.106 68.0323 126.005 68.5316 126.005C70.0381 126.005 70.8041 126.803 70.8295 128.398V133H69.6551V128.468C69.6551 127.977 69.543 127.611 69.3187 127.37C69.0944 127.124 68.7178 127.001 68.1888 127.001C67.753 127.001 67.3911 127.133 67.1034 127.395C66.8156 127.653 66.6485 128.002 66.6019 128.442V133H65.4212V128.5C65.4212 127.501 64.9325 127.001 63.9549 127.001C63.1848 127.001 62.6579 127.329 62.3744 127.985V133H61.2001V126.132H62.3109ZM73.9477 133H72.7734V126.132H73.9477V133ZM72.6781 124.31C72.6781 124.12 72.7353 123.959 72.8495 123.828C72.968 123.696 73.1415 123.631 73.37 123.631C73.5986 123.631 73.7721 123.696 73.8905 123.828C74.009 123.959 74.0683 124.12 74.0683 124.31C74.0683 124.5 74.009 124.659 73.8905 124.786C73.7721 124.913 73.5986 124.977 73.37 124.977C73.1415 124.977 72.968 124.913 72.8495 124.786C72.7353 124.659 72.6781 124.5 72.6781 124.31ZM77.4912 124.469V126.132H78.7734V127.04H77.4912V131.299C77.4912 131.574 77.5483 131.781 77.6626 131.921C77.7768 132.056 77.9715 132.124 78.2466 132.124C78.382 132.124 78.5682 132.099 78.8052 132.048V133C78.4962 133.085 78.1958 133.127 77.9038 133.127C77.379 133.127 76.9834 132.968 76.7168 132.651C76.4502 132.333 76.3169 131.883 76.3169 131.299V127.04H75.0664V126.132H76.3169V124.469H77.4912ZM81.3902 126.963C81.9107 126.324 82.5878 126.005 83.4214 126.005C84.8729 126.005 85.605 126.824 85.6177 128.461V133H84.4434V128.455C84.4392 127.96 84.3249 127.594 84.1006 127.357C83.8806 127.12 83.5357 127.001 83.066 127.001C82.6851 127.001 82.3508 127.103 82.063 127.306C81.7753 127.509 81.551 127.776 81.3902 128.106V133H80.2159V123.25H81.3902V126.963Z" fill="white"/>
<path d="M24.9434 86.7227C24.9434 86.3262 25.0687 86.0003 25.3193 85.7451C25.5745 85.4899 25.9118 85.3623 26.3311 85.3623C26.7458 85.3623 27.083 85.4876 27.3428 85.7383C27.6025 85.9844 27.7324 86.3193 27.7324 86.7432V86.9961C27.7324 87.3926 27.6071 87.7161 27.3564 87.9668C27.1058 88.2174 26.7663 88.3428 26.3379 88.3428C25.9141 88.3428 25.5745 88.2174 25.3193 87.9668C25.0687 87.7116 24.9434 87.3835 24.9434 86.9824V86.7227ZM34.2528 86.7227C34.2528 86.3262 34.3781 86.0003 34.6288 85.7451C34.884 85.4899 35.2212 85.3623 35.6405 85.3623C36.0552 85.3623 36.3925 85.4876 36.6522 85.7383C36.912 85.9844 37.0419 86.3193 37.0419 86.7432V86.9961C37.0419 87.3926 36.9165 87.7161 36.6659 87.9668C36.4152 88.2174 36.0757 88.3428 35.6473 88.3428C35.2235 88.3428 34.884 88.2174 34.6288 87.9668C34.3781 87.7116 34.2528 87.3835 34.2528 86.9824V86.7227ZM43.5623 86.7227C43.5623 86.3262 43.6876 86.0003 43.9382 85.7451C44.1935 85.4899 44.5307 85.3623 44.95 85.3623C45.3647 85.3623 45.7019 85.4876 45.9617 85.7383C46.2214 85.9844 46.3513 86.3193 46.3513 86.7432V86.9961C46.3513 87.3926 46.226 87.7161 45.9754 87.9668C45.7247 88.2174 45.3852 88.3428 44.9568 88.3428C44.533 88.3428 44.1935 88.2174 43.9382 87.9668C43.6876 87.7116 43.5623 87.3835 43.5623 86.9824V86.7227ZM52.8717 86.7227C52.8717 86.3262 52.997 86.0003 53.2477 85.7451C53.5029 85.4899 53.8401 85.3623 54.2594 85.3623C54.6741 85.3623 55.0114 85.4876 55.2711 85.7383C55.5309 85.9844 55.6608 86.3193 55.6608 86.7432V86.9961C55.6608 87.3926 55.5355 87.7161 55.2848 87.9668C55.0342 88.2174 54.6946 88.3428 54.2663 88.3428C53.8424 88.3428 53.5029 88.2174 53.2477 87.9668C52.997 87.7116 52.8717 87.3835 52.8717 86.9824V86.7227ZM82.3445 86.7227C82.3445 86.3262 82.4698 86.0003 82.7204 85.7451C82.9756 85.4899 83.3129 85.3623 83.7321 85.3623C84.1469 85.3623 84.4841 85.4876 84.7439 85.7383C85.0036 85.9844 85.1335 86.3193 85.1335 86.7432V86.9961C85.1335 87.3926 85.0082 87.7161 84.7575 87.9668C84.5069 88.2174 84.1674 88.3428 83.739 88.3428C83.3152 88.3428 82.9756 88.2174 82.7204 87.9668C82.4698 87.7116 82.3445 87.3835 82.3445 86.9824V86.7227ZM91.6539 86.7227C91.6539 86.3262 91.7792 86.0003 92.0299 85.7451C92.2851 85.4899 92.6223 85.3623 93.0416 85.3623C93.4563 85.3623 93.7936 85.4876 94.0533 85.7383C94.3131 85.9844 94.443 86.3193 94.443 86.7432V86.9961C94.443 87.3926 94.3176 87.7161 94.067 87.9668C93.8163 88.2174 93.4768 88.3428 93.0484 88.3428C92.6246 88.3428 92.2851 88.2174 92.0299 87.9668C91.7792 87.7116 91.6539 87.3835 91.6539 86.9824V86.7227ZM100.963 86.7227C100.963 86.3262 101.089 86.0003 101.339 85.7451C101.595 85.4899 101.932 85.3623 102.351 85.3623C102.766 85.3623 103.103 85.4876 103.363 85.7383C103.623 85.9844 103.752 86.3193 103.752 86.7432V86.9961C103.752 87.3926 103.627 87.7161 103.376 87.9668C103.126 88.2174 102.786 88.3428 102.358 88.3428C101.934 88.3428 101.595 88.2174 101.339 87.9668C101.089 87.7116 100.963 87.3835 100.963 86.9824V86.7227ZM110.273 86.7227C110.273 86.3262 110.398 86.0003 110.649 85.7451C110.904 85.4899 111.241 85.3623 111.661 85.3623C112.075 85.3623 112.412 85.4876 112.672 85.7383C112.932 85.9844 113.062 86.3193 113.062 86.7432V86.9961C113.062 87.3926 112.937 87.7161 112.686 87.9668C112.435 88.2174 112.096 88.3428 111.667 88.3428C111.244 88.3428 110.904 88.2174 110.649 87.9668C110.398 87.7116 110.273 87.3835 110.273 86.9824V86.7227ZM139.746 86.7227C139.746 86.3262 139.871 86.0003 140.122 85.7451C140.377 85.4899 140.714 85.3623 141.133 85.3623C141.548 85.3623 141.885 85.4876 142.145 85.7383C142.405 85.9844 142.535 86.3193 142.535 86.7432V86.9961C142.535 87.3926 142.409 87.7161 142.159 87.9668C141.908 88.2174 141.568 88.3428 141.14 88.3428C140.716 88.3428 140.377 88.2174 140.122 87.9668C139.871 87.7116 139.746 87.3835 139.746 86.9824V86.7227ZM149.055 86.7227C149.055 86.3262 149.18 86.0003 149.431 85.7451C149.686 85.4899 150.023 85.3623 150.443 85.3623C150.857 85.3623 151.195 85.4876 151.454 85.7383C151.714 85.9844 151.844 86.3193 151.844 86.7432V86.9961C151.844 87.3926 151.719 87.7161 151.468 87.9668C151.217 88.2174 150.878 88.3428 150.45 88.3428C150.026 88.3428 149.686 88.2174 149.431 87.9668C149.18 87.7116 149.055 87.3835 149.055 86.9824V86.7227ZM158.364 86.7227C158.364 86.3262 158.49 86.0003 158.74 85.7451C158.996 85.4899 159.333 85.3623 159.752 85.3623C160.167 85.3623 160.504 85.4876 160.764 85.7383C161.024 85.9844 161.154 86.3193 161.154 86.7432V86.9961C161.154 87.3926 161.028 87.7161 160.778 87.9668C160.527 88.2174 160.187 88.3428 159.759 88.3428C159.335 88.3428 158.996 88.2174 158.74 87.9668C158.49 87.7116 158.364 87.3835 158.364 86.9824V86.7227ZM167.674 86.7227C167.674 86.3262 167.799 86.0003 168.05 85.7451C168.305 85.4899 168.642 85.3623 169.062 85.3623C169.476 85.3623 169.814 85.4876 170.073 85.7383C170.333 85.9844 170.463 86.3193 170.463 86.7432V86.9961C170.463 87.3926 170.338 87.7161 170.087 87.9668C169.836 88.2174 169.497 88.3428 169.068 88.3428C168.645 88.3428 168.305 88.2174 168.05 87.9668C167.799 87.7116 167.674 87.3835 167.674 86.9824V86.7227ZM197.844 87.625C197.58 87.9395 197.263 88.1924 196.894 88.3838C196.53 88.5752 196.129 88.6709 195.691 88.6709C195.117 88.6709 194.616 88.5296 194.187 88.2471C193.763 87.9645 193.435 87.568 193.203 87.0576C192.97 86.5426 192.854 85.9753 192.854 85.3555C192.854 84.6901 192.98 84.0908 193.23 83.5576C193.485 83.0244 193.845 82.6165 194.31 82.334C194.775 82.0514 195.317 81.9102 195.937 81.9102C196.922 81.9102 197.696 82.2793 198.261 83.0176C198.831 83.7513 199.116 84.7539 199.116 86.0254V86.3945C199.116 88.3314 198.733 89.7464 197.967 90.6396C197.202 91.5283 196.047 91.984 194.502 92.0068H194.256V90.9404H194.522C195.566 90.9222 196.368 90.651 196.928 90.127C197.489 89.5983 197.794 88.7643 197.844 87.625ZM195.896 87.625C196.32 87.625 196.71 87.4951 197.065 87.2354C197.425 86.9756 197.687 86.6543 197.851 86.2715V85.7656C197.851 84.9362 197.671 84.2617 197.311 83.7422C196.951 83.2227 196.495 82.9629 195.944 82.9629C195.388 82.9629 194.941 83.1771 194.604 83.6055C194.267 84.0293 194.098 84.5898 194.098 85.2871C194.098 85.9661 194.26 86.5267 194.584 86.9688C194.912 87.4062 195.349 87.625 195.896 87.625ZM202 87.0098L202.506 82.0469H207.606V83.2158H203.579L203.278 85.9297C203.766 85.6426 204.32 85.499 204.94 85.499C205.847 85.499 206.567 85.7998 207.1 86.4014C207.633 86.9984 207.9 87.8073 207.9 88.8281C207.9 89.8535 207.622 90.6624 207.066 91.2549C206.514 91.8428 205.742 92.1367 204.748 92.1367C203.869 92.1367 203.151 91.8929 202.595 91.4053C202.039 90.9176 201.722 90.2432 201.645 89.3818H202.841C202.918 89.9515 203.121 90.3822 203.449 90.6738C203.777 90.9609 204.21 91.1045 204.748 91.1045C205.336 91.1045 205.796 90.904 206.129 90.5029C206.466 90.1019 206.635 89.5482 206.635 88.8418C206.635 88.1764 206.453 87.6432 206.088 87.2422C205.728 86.8366 205.247 86.6338 204.646 86.6338C204.094 86.6338 203.661 86.7546 203.347 86.9961L203.012 87.2695L202 87.0098ZM215.179 88.6572H216.56V89.6895H215.179V92H213.908V89.6895H209.376V88.9443L213.833 82.0469H215.179V88.6572ZM210.811 88.6572H213.908V83.7764L213.757 84.0498L210.811 88.6572ZM223.225 82.04V83.1133H222.992C222.008 83.1315 221.224 83.4232 220.641 83.9883C220.057 84.5534 219.72 85.3486 219.629 86.374C220.153 85.7725 220.869 85.4717 221.775 85.4717C222.641 85.4717 223.332 85.777 223.847 86.3877C224.366 86.9984 224.626 87.7868 224.626 88.7529C224.626 89.7783 224.346 90.5986 223.785 91.2139C223.229 91.8291 222.482 92.1367 221.543 92.1367C220.591 92.1367 219.818 91.7721 219.226 91.043C218.633 90.3092 218.337 89.3659 218.337 88.2129V87.7275C218.337 85.8955 218.727 84.4964 219.506 83.5303C220.29 82.5596 221.454 82.0628 222.999 82.04H223.225ZM221.564 86.5244C221.131 86.5244 220.732 86.6543 220.367 86.9141C220.003 87.1738 219.75 87.4997 219.608 87.8916V88.3564C219.608 89.1768 219.793 89.8376 220.162 90.3389C220.531 90.8402 220.992 91.0908 221.543 91.0908C222.113 91.0908 222.559 90.8812 222.883 90.4619C223.211 90.0426 223.375 89.4935 223.375 88.8145C223.375 88.1309 223.209 87.5794 222.876 87.1602C222.548 86.7363 222.11 86.5244 221.564 86.5244Z" fill="white"/>
<g clip-path="url(#clip0)">
<path d="M207.033 42.8269H204.036L205.911 31.2106H208.908L207.033 42.8269Z" fill="white"/>
<path d="M217.899 31.4946C217.307 31.2595 216.37 31 215.21 31C212.25 31 210.166 32.5817 210.153 34.8431C210.129 36.5115 211.646 37.4382 212.78 37.9945C213.94 38.563 214.334 38.934 214.334 39.4407C214.322 40.2189 213.397 40.5777 212.534 40.5777C211.337 40.5777 210.696 40.3927 209.722 39.9598L209.327 39.7742L208.908 42.3818C209.611 42.7027 210.906 42.9875 212.25 43C215.395 43 217.443 41.4428 217.467 39.0329C217.479 37.7105 216.678 36.6973 214.951 35.8693C213.903 35.3378 213.261 34.9794 213.261 34.4356C213.273 33.9412 213.804 33.4348 214.987 33.4348C215.962 33.41 216.678 33.6447 217.22 33.8796L217.491 34.003L217.899 31.4946V31.4946Z" fill="white"/>
<path d="M221.882 38.7116C222.129 38.0443 223.079 35.4615 223.079 35.4615C223.066 35.4863 223.325 34.7818 223.473 34.3494L223.683 35.3503C223.683 35.3503 224.25 38.1309 224.374 38.7116C223.905 38.7116 222.474 38.7116 221.882 38.7116ZM225.582 31.2106H223.264C222.549 31.2106 222.005 31.4205 221.697 32.1744L217.245 42.8267H220.39C220.39 42.8267 220.908 41.393 221.019 41.0842C221.364 41.0842 224.423 41.0842 224.867 41.0842C224.953 41.492 225.225 42.8267 225.225 42.8267H228L225.582 31.2106V31.2106Z" fill="white"/>
<path d="M201.533 31.2106L198.597 39.1318L198.277 37.5253C197.734 35.6716 196.032 33.6575 194.133 32.6561L196.821 42.8146H199.991L204.702 31.2106H201.533V31.2106Z" fill="white"/>
<path d="M195.872 31.2106H191.049L191 31.4453C194.762 32.4093 197.253 34.7329 198.277 37.5258L197.228 32.187C197.056 31.4451 196.525 31.235 195.872 31.2106Z" fill="white"/>
</g>
<rect x="24" y="25" width="34" height="24" rx="4" fill="white" fill-opacity="0.5"/>
<defs>
<clipPath id="clip0">
<rect width="37" height="12" fill="white" transform="translate(191 31)"/>
</clipPath>
</defs>
</svg>
